<svg xmlns="http://www.w3.org/2000/svg" version="1.1" xmlns:xlink="http://www.w3.org/1999/xlink" width="2000" height="571" viewBox="0 0 2000 571"><svg xml:space="preserve" width="2000" height="571" data-version="2" data-id="lg_iNMqzqu5ZSyBhNjpDN" viewBox="0 0 571 571" x="0" y="0"><rect width="100%" height="100%" fill="transparent"></rect><circle r="50" fill="#d69723" transform="matrix(5.6 0 0 5.6 285.5 285.5)"></circle><circle r="50" fill="#1b1b1b" stroke="#fff" stroke-width="2" paint-order="stroke" transform="translate(285.5 285.5)scale(4.6994)"></circle><path fill="#fff" d="m281.7 363.75-32.37 26.89q-2.49 2.49-7.72 2.49h-38.34q-11.46 0-11.46-11.45V220.33q0-6.23 3.49-9.22l32.12-27.14q2.74-2.24 7.97-2.24h82.92q19.92 0 31.12 5.6 11.21 5.61 15.81 15.57 4.61 9.96 4.61 22.91v11.45q0 9.21-2.24 16.06-2.24 6.85-7.22 11.08h-.25q11.7 3.24 18.8 12.95 7.09 9.71 7.09 24.4v52.79q0 6.22-3.48 9.21l-32.37 26.89q-2.49 2.49-7.72 2.49h-38.6q-11.45 0-11.45-11.45v-38.1q0-4.23-1.49-6.22-1.5-1.99-5.48-1.99h-.25v19.17q0 6.22-3.49 9.21m-7.97-.25q8.97 0 8.97-8.96v-48.81h34.86q5.23 0 7.34 2.49 2.12 2.49 2.12 8.22v38.1q0 8.96 8.96 8.96h38.6q8.96 0 8.96-8.96v-52.79q0-15.69-8.21-25.15-8.22-9.46-21.92-10.95 7.97-3.49 10.96-10.71 2.99-7.22 2.99-17.68v-11.45q0-12.45-4.48-21.79-4.49-9.34-15.19-14.57-10.71-5.23-29.38-5.23h-82.92q-8.97 0-8.97 8.97v161.35q0 8.96 8.97 8.96Zm80.18-22.41v-33.36q0-24.41-27.64-24.41h-70.46v57.77h-2.49V206.63h56.77q14.69 0 21.54 7.97 6.84 7.97 6.84 20.42v17.18q0 11.2-2.98 18.67-2.99 7.47-11.96 10.21h2.74q30.13 0 30.13 26.65v33.36Zm-98.1-60.01h54.28q15.44 0 20.67-7.47 5.22-7.47 5.22-21.16v-17.43q0-11.7-6.34-18.8-6.35-7.1-19.55-7.1h-54.28Zm26.89-52.04h18.67q6.48 0 8.72 3.36 2.24 3.37 2.24 8.35v8.46q0 4.98-2.24 8.34-2.24 3.36-8.72 3.36H282.7Z"></path><rect width="194.22" height="211.4" x="-97.11" y="-105.7" fill="none" rx="0" ry="0" transform="translate(289.42 287.93)"></rect><path fill="#fff" d="M100.931 253.7c-4.174 0-7.556 5.639-7.556 12.594 0 5.48 2.104 10.131 5.037 11.862v35.995c0 1.386 1.134 2.519 2.52 2.519s2.518-1.133 2.518-2.519v-35.995c2.933-1.73 5.037-6.381 5.037-11.862 0-6.955-3.382-12.594-7.556-12.594m22.984 0a.947.947 0 0 0-.944.945v13.853c0 .52-.284.945-.63.945s-.63-.426-.63-.945v-13.853c0-.52-.425-.945-.944-.945s-.945.425-.945.945v13.853c0 .52-.283.945-.63.945s-.63-.426-.63-.945v-13.853c0-.52-.424-.945-.944-.945s-.944.425-.944.945v13.853c0 .52-.284.945-.63.945s-.63-.426-.63-.945v-13.853c0-.52-.425-.945-.944-.945s-.945.425-.945.945v13.538c0 5.314.877 8.749 3.149 10.078v35.89c0 1.386 1.133 2.519 2.518 2.519s2.52-1.133 2.52-2.519v-35.89c2.271-1.33 3.148-4.764 3.148-10.078v-13.538a.947.947 0 0 0-.945-.945m13.539 0c-4.175 0-7.557 6.767-7.557 15.113 0 6.58 2.103 12.174 5.038 14.25v31.088c0 1.386 1.133 2.519 2.519 2.519s2.518-1.133 2.518-2.519V256.22a2.526 2.526 0 0 0-2.518-2.519m297.659-.001c-4.174 0-7.556 5.639-7.556 12.594 0 5.48 2.104 10.131 5.037 11.862v35.995c0 1.386 1.134 2.519 2.52 2.519s2.518-1.133 2.518-2.519v-35.995c2.933-1.73 5.037-6.381 5.037-11.862 0-6.955-3.382-12.594-7.556-12.594m22.984 0a.947.947 0 0 0-.944.945v13.853c0 .52-.284.945-.63.945s-.63-.426-.63-.945v-13.853c0-.52-.425-.945-.944-.945s-.945.425-.945.945v13.853c0 .52-.283.945-.63.945s-.63-.426-.63-.945v-13.853c0-.52-.424-.945-.944-.945s-.944.425-.944.945v13.853c0 .52-.284.945-.63.945s-.63-.426-.63-.945v-13.853c0-.52-.425-.945-.944-.945s-.945.425-.945.945v13.538c0 5.314.877 8.749 3.149 10.078v35.89c0 1.386 1.133 2.519 2.518 2.519s2.52-1.133 2.52-2.519v-35.89c2.271-1.33 3.148-4.764 3.148-10.078v-13.538a.947.947 0 0 0-.945-.945m13.539 0c-4.175 0-7.557 6.767-7.557 15.113 0 6.58 2.103 12.174 5.038 14.25v31.088c0 1.386 1.133 2.519 2.519 2.519s2.518-1.133 2.518-2.519V256.22a2.526 2.526 0 0 0-2.518-2.519M260.91 451.07q0 1.37-.39 2.55-.4 1.17-1 1.99-.61.83-1.52 1.68t-1.76 1.47q-.86.62-1.94 1.49-1.09.87-1.87 1.65 1.1 0 3.36-.07 2.27-.06 3.44-.06 1.12 0 1.51.75.4.75.4 2.15 0 .43-.05 1.47t-.05 1.59v.29q0 .24-.03.37-.04.13-.18.24-.15.12-.44.16h-1.16q-1.22-.03-5.22-.12-6.44 0-14.08.25v-.32q-.24-.14-.39-.58-.16-.43-.16-.97v-4.7q0-.37 1.1-1.1 4.43-2.99 6.35-4.35l1-.77q3.48-2.71 3.48-4.83 0-.68-.4-1.07-.39-.38-1.05-.38-.57 0-.9.25-.33.25-.45.61t-.19.73q-.07.37-.21.68-.14.3-.41.37h-7.48q-.9 0-.9-.49.24-2.32 1.11-3.98.87-1.67 2.32-2.64 1.45-.96 3.27-1.41 1.82-.44 4.16-.44 1.69 0 3.22.27 1.53.26 2.92.85 1.38.59 2.39 1.45 1.01.86 1.6 2.13.6 1.28.6 2.84"></path><rect width="21.82" height="25.39" x="-10.91" y="-12.7" fill="none" rx="0" ry="0" transform="translate(250.73 456.73)"></rect><path fill="#fff" d="M273.25 469.31q-1.82 0-3.31-.35-1.49-.34-2.58-.94-1.1-.59-1.95-1.51-.84-.92-1.4-1.96-.55-1.04-.94-2.39-.39-1.34-.59-2.66-.2-1.32-.31-2.95 0-12.23 11.28-13.12 1.95 0 3.57.45 1.61.44 2.76 1.18 1.14.74 2.03 1.81.89 1.07 1.42 2.23.53 1.16.87 2.53.34 1.36.46 2.6.13 1.24.13 2.58 0 3.06-.87 5.46-.88 2.4-2.44 3.93-1.55 1.53-3.62 2.32-2.06.79-4.51.79m-2.45-12.12q0 .63.02 1.12.02.48.07 1.18.06.7.16 1.22.09.53.28 1.09.18.57.44.94t.65.6q.4.23.9.23.56 0 1-.24.45-.24.73-.58.28-.34.47-.93.2-.6.29-1.06.1-.46.15-1.21.05-.75.06-1.13v-1.29q.07-.55.07-1.71 0-.08.01-.64v-.91q0-.35-.04-1-.05-.64-.13-1.06-.08-.42-.27-.95-.18-.53-.44-.85-.26-.31-.66-.53-.4-.21-.92-.21-.42 0-.77.11-.36.11-.62.38-.27.26-.48.54-.21.27-.35.74-.15.47-.26.83-.11.36-.18.96-.06.61-.1.99-.04.38-.06 1.06-.02.69-.02 1.01v1z"></path><rect width="22.52" height="25.88" x="-11.26" y="-12.94" fill="none" rx="0" ry="0" transform="translate(273.93 456.87)"></rect><path fill="#fff" d="M307.96 451.07q0 1.37-.39 2.55-.4 1.17-1 1.99-.61.83-1.52 1.68t-1.76 1.47q-.86.62-1.94 1.49-1.09.87-1.86 1.65 1.09 0 3.35-.07 2.27-.06 3.45-.06 1.11 0 1.5.75.4.75.4 2.15 0 .43-.05 1.47t-.05 1.59v.29q0 .24-.03.37t-.18.24q-.14.12-.43.16h-1.16q-1.23-.03-5.23-.12-6.44 0-14.08.25v-.32q-.24-.14-.39-.58-.16-.43-.16-.97v-4.7q0-.37 1.1-1.1 4.43-2.99 6.35-4.35l1-.77q3.48-2.71 3.48-4.83 0-.68-.4-1.07-.39-.38-1.05-.38-.57 0-.9.25-.33.25-.45.61t-.19.73q-.07.37-.21.68-.14.3-.41.37h-7.48q-.9 0-.9-.49.24-2.32 1.11-3.98.87-1.67 2.32-2.64 1.45-.96 3.27-1.41 1.82-.44 4.16-.44 1.69 0 3.22.27 1.53.26 2.92.85 1.38.59 2.39 1.45 1.01.86 1.6 2.13.6 1.28.6 2.84"></path><rect width="21.82" height="25.39" x="-10.91" y="-12.7" fill="none" rx="0" ry="0" transform="translate(297.78 456.73)"></rect><path fill="#fff" d="M309.99 461.96q0-.35.49-.46.49-.12 1.44-.12h2.65q.71 0 2.09.05 1.39.05 2.16.05.28.03.41.31.14.27.19.58.05.3.26.56.2.26.62.26 1.61 0 1.61-2.71 0-.58-.04-1.01-.05-.42-.2-.89-.14-.47-.47-.72-.33-.25-.83-.25-.58 0-.85.29-.26.29-.28.65-.02.35-.18.64-.16.29-.56.29h-7.16q-.48-.69-.48-1.96V445.5q0-.41.02-.61.01-.2.1-.47.09-.28.27-.47h17.72q.34 0 .64.14.3.15.36.41v3.44q0 1.76-.09 2.11-.09.34-.59.34-3.48 0-10.18.07-.05.48-.11 1.46-.07.99-.11 1.47.8-.58 2.06-.9 1.25-.32 2.48-.32 3.58 0 5.74 2.18t2.16 5.61q0 2.04-.64 3.66-.64 1.63-1.69 2.68-1.04 1.04-2.47 1.75-1.42.7-2.92.99-1.5.3-3.11.3-1.08 0-2.03-.08-.94-.08-1.97-.29-1.03-.21-1.88-.55-.86-.35-1.67-.92-.82-.57-1.4-1.32-.59-.75-1.01-1.83-.42-1.08-.55-2.39"></path><rect width="21.34" height="25.39" x="-10.67" y="-12.7" fill="none" rx="0" ry="0" transform="translate(321.16 457.14)"></rect><path fill="#fff" d="M251.21 101.48q0-.97.08-1.13.15-.22.47-.22h.39q.26 0 .35.03h.84q1.63 0 4.92-.08 3.3-.08 4.94-.08h4.29q.42.05.42.42v5.38q-.02.1-.06.17-.04.07-.06.1l-.16.11q-.13.09-.17.14h-7.48v1.99h.71q.93 0 2.85-.06 1.92-.07 2.95-.07.45 0 .61.18.16.18.16.5 0 .08-.03.28-.03.19-.03.27v.61q0 .07.01.27.02.2.02.34v.45q0 .36.03.71.03.36.03.62v.41q-.08.2-.12.26-.05.07-.17.07v-.03q-.59 0-2.05.08t-2.33.08h-2.58v2.06q.13 0 .39.01.26.02.39.02.72 0 2.14-.05 1.42-.05 2.05-.05h2.06q.84 0 1.06.2.08.09.13.19v5.16q0 .34-.13.51-.13.18-.48.2H251.7l-.49-.42Z"></path><rect width="17.05" height="21.53" x="-8.53" y="-10.77" fill="none" rx="0" ry="0" transform="translate(260.24 111.27)"></rect><path fill="#fff" d="M282.57 106.38q-.43 0-.71-.13-.27-.13-.43-.32-.17-.19-.37-.39-.2-.19-.63-.32-.44-.13-1.11-.13-.21 0-.51.04-.3.04-.65.22-.36.18-.36.45 0 .31.3.52.3.22.68.31.37.09.85.21.47.12.67.22l2.37.58q1.04.29 1.88.61.84.32 1.78.88.95.55 1.57 1.23.63.68 1.05 1.7.42 1.02.42 2.25 0 1.48-.39 2.64v-.03q-.34 1.03-.95 1.84-.61.82-1.45 1.36-.84.54-1.69.9t-1.97.58q-1.12.22-2 .32-.88.11-2.02.19-5.08-.26-6.8-1.62v-.19q-1.47-1.09-2.17-2.38-.7-1.29-.83-2.9 0-.39.35-.39.1 0 .29.02.2.01.29.01h1.65q.22-.03.64-.03h.42q.13 0 .23.03.93-.03 3.19-.03h.74q.32 0 .5.19.18.2.28.48.1.28.24.56.14.28.49.48.36.19.94.19.63 0 1.13-.33.51-.33.51-.96 0-.29-.27-.55-.28-.25-.82-.46-.55-.21-.98-.34-.43-.13-1.15-.31-.73-.17-.94-.24h-.96q-3.5-1.03-5.04-2.62-1.54-1.58-1.54-4.02 0-1.61.61-2.9.6-1.29 1.59-2.11.99-.82 2.33-1.38 1.34-.55 2.72-.79 1.39-.23 2.87-.23 2.63 0 4.88.88 2.24.88 3.4 2.28.42.42.68 1.06.26.65.33 1.02.07.38.19 1.27l-.45.64h-2.74q-.46 0-1.5-.03-1.05-.03-1.63-.03"></path><rect width="20.27" height="22.82" x="-10.13" y="-11.41" fill="none" rx="0" ry="0" transform="translate(279.74 111.2)"></rect><path fill="#fff" d="M289.63 105.99v-5.8h18.75q.26.05.33.2.06.16.06.45v5.15q-.03.39-.45.39h-4.58v14.82q0 .02-.01.08-.02.07-.02.09 0 .01-.02.06-.01.05-.03.06l-.03.06q-.02.04-.04.05l-.06.03q-.04.03-.09.04-.04.02-.09.03-.06 0-.12.02h-1.03q-2.07 0-2.07-.13-.13 0-.38.02-.26.01-.39.01h-1.29q-.37 0-1.05.02-.69.02-1.08.02h-.9l-.64-.46v-3.48q.01-.93.13-3.99.13-3.06.13-4.84v-.42q0-.12.01-.4.02-.27.02-.4 0-.15-.02-.59-.01-.44-.01-.57h-4.03q-.36 0-.68-.12-.32-.12-.32-.4"></path><rect width="19.14" height="21.53" x="-9.57" y="-10.77" fill="none" rx="0" ry="0" transform="translate(299.7 111.45)"></rect><path fill="#fff" d="M310.45 122.07v-.48q0-.24.01-.76.02-.53.02-.85v-.84q0-3.93.51-3.93h6.61q1.55 0 1.55.45.06 3.09.06 4.74v.55q0 .11.02.34.01.24.01.37 0 .9-.35.9h-7.93Z"></path><rect width="8.79" height="7.35" x="-4.39" y="-3.67" fill="none" rx="0" ry="0" transform="translate(315.35 119.39)"></rect></svg></svg>